<svg xmlns="http://www.w3.org/2000/svg" viewBox="0 0 150 56" width="150" height="56" fill="none" role="img" aria-label="BOW">
  <defs>
    <linearGradient id="wmg" x1="10" y1="28" x2="144" y2="28" gradientUnits="userSpaceOnUse">
      <stop offset="0" stop-color="#bef264"/>
      <stop offset=".55" stop-color="#4ade80"/>
      <stop offset="1" stop-color="#2dd4bf"/>
    </linearGradient>
  </defs>
  <g stroke="url(#wmg)" stroke-width="7.5" stroke-linecap="round" stroke-linejoin="round">
    <!-- B -->
    <path d="M15 10 V46"/>
    <path d="M15 10 H27 a10 9 0 0 1 0 18 H15"/>
    <path d="M15 28 H28 a10 9 0 0 1 0 18 H15"/>
    <!-- O = cây cung: thân cung cong + dây thẳng + mũi tên bắn ra -->
    <path d="M66 11 C 44 18, 44 38, 66 45"/>
    <path d="M66 11 V45"/>
    <path d="M66 28 H99"/>
    <path d="M92 21 L99 28 L92 35"/>
    <!-- W -->
    <path d="M108 10 L116 46 L124 26 L132 46 L140 10"/>
  </g>
</svg>
